<svg xmlns="http://www.w3.org/2000/svg" width="50" height="50" fill="none" viewBox="0 0 50 50">
  <g fill="#D9D9D9" clip-path="url(#a)">
    <path d="M36.36 50a4 4 0 0 1-1.062-.138L3.083 41.235a4.205 4.205 0 0 1-2.946-5.104l4.065-15.15c.15-.556.72-.879 1.275-.737.556.148.885.72.738 1.275L2.152 36.665a2.114 2.114 0 0 0 1.48 2.56l32.201 8.623a2.074 2.074 0 0 0 2.536-1.467l1.627-6.029a1.04 1.04 0 0 1 1.277-.735c.556.15.883.723.735 1.277l-1.625 6.02C39.893 48.77 38.206 50 36.36 50"/>
    <path d="M45.834 37.5H12.5a4.17 4.17 0 0 1-4.166-4.167v-25A4.17 4.17 0 0 1 12.5 4.167h33.334A4.17 4.17 0 0 1 50 8.333v25a4.17 4.17 0 0 1-4.166 4.167M12.5 6.25a2.087 2.087 0 0 0-2.083 2.083v25c0 1.148.935 2.084 2.083 2.084h33.334a2.087 2.087 0 0 0 2.083-2.084v-25a2.087 2.087 0 0 0-2.084-2.083z"/>
    <path d="M18.75 18.75a4.17 4.17 0 0 1-4.166-4.167 4.17 4.17 0 0 1 4.166-4.166 4.17 4.17 0 0 1 4.167 4.166 4.17 4.17 0 0 1-4.167 4.167m0-6.25a2.087 2.087 0 0 0-2.083 2.083c0 1.148.935 2.084 2.083 2.084a2.087 2.087 0 0 0 2.084-2.084A2.087 2.087 0 0 0 18.75 12.5M9.52 35.27c-.266 0-.533-.101-.737-.303a1.04 1.04 0 0 1 0-1.473l9.84-9.84c1.179-1.179 3.24-1.179 4.418 0l2.93 2.93 8.108-9.73a3.13 3.13 0 0 1 2.38-1.125h.022c.913 0 1.777.396 2.373 1.09L49.75 29.53a1.04 1.04 0 1 1-1.581 1.357L37.273 18.175a1.03 1.03 0 0 0-.792-.363c-.217-.018-.598.132-.8.375l-8.84 10.607c-.187.225-.46.36-.754.373a1 1 0 0 1-.783-.305l-3.735-3.735a1.07 1.07 0 0 0-1.473 0l-9.84 9.84a1.04 1.04 0 0 1-.735.304"/>
  </g>
  <defs>
    <clipPath id="a">
      <path fill="#fff" d="M0 0h50v50H0z"/>
    </clipPath>
  </defs>
</svg>
