<svg xmlns="http://www.w3.org/2000/svg" width="50" height="49" fill="none" viewBox="0 0 50 49">
  <path fill="#D9D9D9" d="M36.36 48.79c-.35 0-.709-.044-1.063-.138L3.082 40.025A4.205 4.205 0 0 1 .137 34.92L4.2 19.77c.15-.556.72-.88 1.275-.738.556.148.886.721.738 1.275L2.15 35.454a2.114 2.114 0 0 0 1.48 2.56l32.201 8.623a2.074 2.074 0 0 0 2.536-1.466l1.627-6.03a1.04 1.04 0 0 1 1.277-.735c.556.15.883.723.735 1.277l-1.625 6.021c-.49 1.854-2.177 3.085-4.023 3.085"/>
  <path fill="#D9D9D9" stroke="#D9D9D9" stroke-width=".23" d="M26.328 1.43a.883.883 0 0 1-.06 1.766L13.9 2.78a2.19 2.19 0 0 0-2.261 2.114l-.622 18.462 36.003 1.212.622-18.462a2.19 2.19 0 0 0-2.115-2.262l-12.349-.416a.883.883 0 0 1 .06-1.765l12.348.415a3.96 3.96 0 0 1 3.821 4.087l-.858 25.486a3.96 3.96 0 0 1-4.086 3.82l-31.627-1.064a3.96 3.96 0 0 1-3.82-4.087l.857-25.485a3.96 3.96 0 0 1 4.087-3.821zM10.78 30.38a2.19 2.19 0 0 0 2.115 2.262l31.626 1.064a2.19 2.19 0 0 0 2.262-2.115l.177-5.259-36.003-1.211z"/>
  <path fill="#D9D9D9" stroke="#D9D9D9" stroke-width=".23" d="M16.933 26.63a2.42 2.42 0 0 1 2.336 2.5 2.42 2.42 0 0 1-2.498 2.335 2.423 2.423 0 0 1-2.338-2.498 2.423 2.423 0 0 1 2.5-2.338Zm-.06 1.765a.654.654 0 1 0 .63.675.654.654 0 0 0-.63-.675Zm25.507.627a.884.884 0 0 1-.06 1.766l-19.121-.643a.884.884 0 0 1 .06-1.766zM26.625 9.216a2.28 2.28 0 0 1 2.304.078l3.954 2.463a2.28 2.28 0 0 1 1.084 2.035 2.28 2.28 0 0 1-1.219 1.956l-4.11 2.193a2.3 2.3 0 0 1-1.163.273 2.3 2.3 0 0 1-1.141-.351 2.28 2.28 0 0 1-1.086-2.034l.157-4.655a2.28 2.28 0 0 1 1.22-1.958Zm1.106 1.494a.5.5 0 0 0-.165.02l-.11.045a.53.53 0 0 0-.274.36l-.012.098-.156 4.656c-.01.28.171.424.253.475s.292.15.54.018l4.11-2.192a.53.53 0 0 0 .285-.457.53.53 0 0 0-.254-.477l-3.954-2.463a.5.5 0 0 0-.263-.083Zm2.051-9.164a.9.9 0 0 1 .615.28c.159.17.245.401.237.633a.9.9 0 0 1-.28.615.9.9 0 0 1-.632.238.9.9 0 0 1-.616-.28.89.89 0 0 1 .041-1.248h.001a.9.9 0 0 1 .634-.238Z"/>
</svg>
